<svg width="496" height="355" viewBox="0 0 496 355" fill="none" xmlns="http://www.w3.org/2000/svg">
<path fill-rule="evenodd" clip-rule="evenodd" d="M426.51 115H472C478.365 115 484.47 117.529 488.971 122.029C493.471 126.53 496 132.635 496 139C496 145.365 493.471 151.47 488.971 155.971C484.47 160.471 478.365 163 472 163H454.78L429.46 314.89C427.622 326.111 421.849 336.31 413.174 343.66C404.499 351.01 393.49 355.03 382.12 355H113.88C102.51 355.03 91.501 351.01 82.8261 343.66C74.1512 336.31 68.3775 326.111 66.54 314.89L41.22 163H24C17.6348 163 11.5303 160.471 7.0294 155.971C2.52859 151.47 0 145.365 0 139C0 132.635 2.52859 126.53 7.0294 122.029C11.5303 117.529 17.6348 115 24 115H77C76.992 111.847 77.6092 108.724 78.8158 105.811C80.0225 102.898 81.7947 100.254 84.03 98.03L174.54 7.52C176.762 5.26161 179.409 3.4655 182.329 2.23521C185.248 1.00493 188.382 0.364914 191.55 0.352005C194.719 0.339127 197.858 0.953628 200.787 2.16002C203.717 3.36653 206.379 5.14101 208.619 7.38121C210.859 9.62151 212.634 12.2831 213.84 15.2126C215.046 18.142 215.661 21.2814 215.648 24.45C215.635 27.618 214.995 30.752 213.765 33.671C212.535 36.591 210.738 39.238 208.48 41.46L134.94 115H368.57L295.03 41.46C292.772 39.238 290.975 36.591 289.745 33.671C288.515 30.752 287.875 27.618 287.862 24.45C287.849 21.2814 288.464 18.142 289.67 15.2126C290.876 12.2831 292.651 9.62151 294.891 7.38121C297.131 5.14101 299.793 3.36653 302.723 2.16002C305.652 0.953628 308.791 0.339127 311.96 0.352005C315.128 0.364914 318.262 1.00493 321.181 2.23521C324.101 3.4655 326.748 5.26161 328.97 7.52L419.48 98.03C421.715 100.254 423.487 102.898 424.694 105.811C425.901 108.724 426.518 111.847 426.51 115ZM303.996 24.49C303.996 26.613 304.839 28.649 306.34 30.15L396.85 120.66C397.593 121.403 398.476 121.993 399.447 122.395C400.418 122.797 401.459 123.004 402.51 123.004C403.561 123.004 404.602 122.797 405.573 122.395C406.544 121.993 407.427 121.403 408.17 120.66C408.913 119.917 409.503 119.034 409.905 118.063C410.307 117.092 410.514 116.051 410.514 115C410.514 113.949 410.307 112.908 409.905 111.937C409.503 110.966 408.913 110.083 408.17 109.34L317.66 18.83C316.159 17.3289 314.123 16.4856 312 16.4856C309.877 16.4856 307.841 17.3289 306.34 18.83C304.839 20.3311 303.996 22.3671 303.996 24.49ZM185.85 18.83L95.34 109.34C93.839 110.841 92.996 112.877 92.996 115C92.996 116.051 93.203 117.092 93.605 118.063C94.007 119.034 94.597 119.917 95.34 120.66C96.083 121.403 96.966 121.993 97.937 122.395C98.908 122.797 99.949 123.004 101 123.004C102.051 123.004 103.092 122.797 104.063 122.395C105.034 121.993 105.917 121.403 106.66 120.66L197.17 30.15C197.913 29.407 198.503 28.524 198.905 27.553C199.307 26.582 199.514 25.541 199.514 24.49C199.514 23.439 199.307 22.398 198.905 21.4268C198.503 20.4557 197.913 19.5733 197.17 18.83C196.427 18.0867 195.544 17.4971 194.573 17.0949C193.602 16.6926 192.561 16.4856 191.51 16.4856C190.459 16.4856 189.418 16.6926 188.447 17.0949C187.476 17.4971 186.593 18.0867 185.85 18.83ZM402.822 331.439C408.605 326.539 412.454 319.74 413.68 312.26L438.56 163H57.44L82.32 312.26C83.546 319.74 87.3954 326.539 93.178 331.439C98.962 336.338 106.3 339.019 113.88 339H382.12C389.7 339.019 397.038 336.338 402.822 331.439ZM24 147H472C474.122 147 476.157 146.157 477.657 144.657C479.157 143.157 480 141.122 480 139C480 136.878 479.157 134.843 477.657 133.343C476.157 131.843 474.122 131 472 131H420.4C420.1 131.33 419.8 131.65 419.48 131.97C414.979 136.471 408.875 138.999 402.51 138.999C396.145 138.999 390.041 136.471 385.54 131.97L384.57 131H118.94L117.97 131.97C113.469 136.471 107.365 138.999 101 138.999C94.635 138.999 88.5308 136.471 84.03 131.97C83.71 131.65 83.41 131.33 83.11 131H24C21.8783 131 19.8434 131.843 18.3431 133.343C16.8429 134.843 16 136.878 16 139C16 141.122 16.8429 143.157 18.3431 144.657C19.8434 146.157 21.8783 147 24 147ZM264 323H232C229.878 323 227.843 322.157 226.343 320.657C224.843 319.157 224 317.122 224 315V187C224 184.878 224.843 182.843 226.343 181.343C227.843 179.843 229.878 179 232 179H264C266.122 179 268.157 179.843 269.657 181.343C271.157 182.843 272 184.878 272 187V315C272 317.122 271.157 319.157 269.657 320.657C268.157 322.157 266.122 323 264 323ZM256 195H240V307H256V195ZM136 323H168C170.122 323 172.157 322.157 173.657 320.657C175.157 319.157 176 317.122 176 315V187C176 184.878 175.157 182.843 173.657 181.343C172.157 179.843 170.122 179 168 179H136C133.878 179 131.843 179.843 130.343 181.343C128.843 182.843 128 184.878 128 187V315C128 317.122 128.843 319.157 130.343 320.657C131.843 322.157 133.878 323 136 323ZM144 195H160V307H144V195ZM360 323H328C325.878 323 323.843 322.157 322.343 320.657C320.843 319.157 320 317.122 320 315V187C320 184.878 320.843 182.843 322.343 181.343C323.843 179.843 325.878 179 328 179H360C362.122 179 364.157 179.843 365.657 181.343C367.157 182.843 368 184.878 368 187V315C368 317.122 367.157 319.157 365.657 320.657C364.157 322.157 362.122 323 360 323ZM352 195H336V307H352V195Z" fill="#838383"/>
</svg>
